<svg xmlns="http://www.w3.org/2000/svg" width="117" height="80"><g fill="none" fill-rule="evenodd"><path d="M-32 112h181V-32H-32z"/><path fill="#FFF" d="M72.37 27.38C65.59 32.35 55.77 35 47.3 35A45.5 45.5 0 0 1 16.7 23.38c-.64-.57-.07-1.35.69-.9a61.88 61.88 0 0 0 30.64 8.08c7.5 0 15.77-1.55 23.36-4.76 1.15-.48 2.11.75.99 1.58zm2.82-3.2c-.87-1.1-5.73-.53-7.91-.27-.67.08-.77-.5-.17-.91 3.88-2.71 10.23-1.93 10.97-1.02.75.91-.2 7.25-3.83 10.28-.56.47-1.09.22-.84-.4.82-2.03 2.65-6.58 1.78-7.68zM67.43 3.85V1.22c0-.4.3-.67.67-.67h11.87c.38 0 .68.27.68.66v2.26c0 .38-.32.88-.9 1.66l-6.14 8.73c2.28-.05 4.7.29 6.77 1.45.47.26.6.65.63 1.03v2.8c0 .4-.43.84-.87.6a13.73 13.73 0 0 0-12.54.03c-.42.22-.85-.22-.85-.61v-2.67c0-.43.01-1.16.44-1.81L74.32 4.5h-6.2c-.38 0-.69-.26-.7-.66zM90.87.21c5.36 0 8.26 4.58 8.26 10.4 0 5.62-3.2 10.08-8.26 10.08-5.26 0-8.12-4.58-8.12-10.28 0-5.74 2.9-10.2 8.12-10.2zm.03 3.76c-2.66 0-2.83 3.6-2.83 5.86 0 2.25-.03 7.06 2.8 7.06 2.8 0 2.93-3.88 2.93-6.25 0-1.55-.07-3.41-.54-4.88-.4-1.28-1.21-1.79-2.36-1.79zM61.61 20.26c-.24.2-.68.22-.85.08-1.24-.95-2.07-2.4-2.07-2.4-1.98 2.01-3.39 2.62-5.96 2.62-3.03 0-5.4-1.87-5.4-5.6a6.1 6.1 0 0 1 3.85-5.87c1.96-.86 4.7-1.01 6.79-1.25 0 0 .17-2.25-.44-3.07a2.54 2.54 0 0 0-2.03-.93c-1.33 0-2.63.72-2.89 2.11-.07.4-.36.74-.68.7l-3.45-.37a.63.63 0 0 1-.54-.75c.8-4.22 4.63-5.5 8.07-5.5 1.76 0 4.05.47 5.44 1.79 1.75 1.63 1.59 3.8 1.59 6.18v5.6c0 1.68.7 2.42 1.36 3.32.23.33.28.72-.01.96-.74.61-2.78 2.38-2.78 2.38zm-3.64-8.76v-.78c-2.61 0-5.37.56-5.37 3.62 0 1.55.81 2.6 2.2 2.6 1 0 1.92-.62 2.5-1.63.7-1.25.67-2.41.67-3.81zm-43.7 8.76c-.23.2-.67.22-.84.08-1.24-.95-2.07-2.4-2.07-2.4-1.99 2.01-3.39 2.62-5.96 2.62-3.04 0-5.4-1.87-5.4-5.6a6.1 6.1 0 0 1 3.85-5.87c1.96-.86 4.7-1.01 6.79-1.25 0 0 .17-2.25-.44-3.07a2.54 2.54 0 0 0-2.03-.93c-1.34 0-2.63.72-2.89 2.11-.07.4-.37.74-.68.7l-3.46-.37a.63.63 0 0 1-.53-.75C1.4 1.31 5.24.03 8.68.03c1.76 0 4.05.47 5.44 1.79C15.87 3.45 15.7 5.62 15.7 8v5.6c0 1.68.7 2.42 1.36 3.32.23.33.28.72-.01.96-.74.61-2.78 2.38-2.78 2.38zm-3.63-8.76v-.78c-2.61 0-5.37.56-5.37 3.62 0 1.55.8 2.6 2.2 2.6 1 0 1.92-.62 2.5-1.63.7-1.25.67-2.41.67-3.81zm14.2-1.63v9.76c0 .37-.3.67-.68.67h-3.6a.67.67 0 0 1-.68-.67V1.27c0-.37.3-.67.68-.67h3.37c.37 0 .67.3.67.67v2.35h.07C25.55 1.3 27.2.21 29.42.21c2.26 0 3.67 1.09 4.69 3.41A5.13 5.13 0 0 1 39.09.21c1.52 0 3.17.62 4.18 2.02 1.15 1.55.91 3.8.91 5.78v11.63c0 .37-.31.66-.7.66h-3.6a.67.67 0 0 1-.65-.66V9.87c0-.78.07-2.72-.1-3.45-.27-1.25-1.08-1.6-2.13-1.6a2.4 2.4 0 0 0-2.15 1.52c-.37.93-.34 2.48-.34 3.53v9.77c0 .37-.31.66-.7.66h-3.6a.67.67 0 0 1-.65-.66V9.87c0-2.06.33-5.08-2.23-5.08-2.6 0-2.5 2.94-2.5 5.08zm81.94 9.76c0 .37-.3.67-.67.67h-3.61a.67.67 0 0 1-.67-.67V1.27c0-.37.3-.67.67-.67h3.33c.4 0 .68.31.68.52v2.81h.07c1-2.52 2.42-3.72 4.92-3.72 1.62 0 3.2.58 4.21 2.17.94 1.48.94 3.96.94 5.74v11.6a.68.68 0 0 1-.69.58h-3.62a.68.68 0 0 1-.64-.58V8.58c0-3.72-1.43-3.83-2.26-3.83-.96 0-1.74.75-2.07 1.44a8.3 8.3 0 0 0-.6 3.52l.01 9.92zM.93 79.3c-.62 0-.93-.3-.93-.93V56.68c0-.62.31-.93.93-.93H3c.3 0 .55.07.72.19.17.12.29.36.35.7l.28 1.48c2.99-2.04 5.9-3.06 8.73-3.06 2.9 0 4.86 1.1 5.89 3.3 3.08-2.2 6.16-3.3 9.24-3.3 2.15 0 3.8.6 4.95 1.8 1.15 1.22 1.73 2.94 1.73 5.16v16.35c0 .62-.32.93-.94.93H31.2c-.62 0-.94-.3-.94-.93V63.33c0-1.55-.3-2.7-.88-3.44-.6-.75-1.53-1.12-2.8-1.12-2.28 0-4.56.7-6.87 2.1.03.21.05.44.05.69v16.81c0 .62-.31.93-.93.93h-2.76c-.62 0-.93-.3-.93-.93V63.33c0-1.55-.3-2.7-.89-3.44-.6-.75-1.53-1.12-2.8-1.12-2.37 0-4.64.68-6.82 2.05v17.55c0 .62-.3.93-.93.93H.93zm47.44.7c-2.21 0-3.9-.62-5.09-1.86-1.18-1.24-1.77-2.99-1.77-5.25V56.7c0-.63.3-.94.93-.94h2.75c.63 0 .94.31.94.93v14.73c0 1.67.32 2.9.98 3.69.65.79 1.7 1.18 3.13 1.18 2.24 0 4.5-.74 6.77-2.23V56.68c0-.62.3-.93.93-.93h2.75c.63 0 .94.31.94.93v21.7c0 .61-.31.92-.94.92h-2c-.31 0-.56-.06-.73-.18-.17-.13-.28-.36-.35-.7l-.32-1.62c-2.9 2.13-5.87 3.2-8.92 3.2zm26.52 0c-2.62 0-4.97-.43-7.05-1.3a1.83 1.83 0 0 1-.77-.51c-.14-.19-.21-.48-.21-.88V76c0-.56.18-.84.56-.84.22 0 .6.1 1.16.28 2.06.65 4.2.97 6.4.97 1.53 0 2.69-.3 3.48-.88.8-.59 1.19-1.44 1.19-2.55a2.4 2.4 0 0 0-.72-1.82 7.83 7.83 0 0 0-2.64-1.39l-3.97-1.48c-3.46-1.27-5.18-3.44-5.18-6.5 0-2.02.78-3.65 2.36-4.88 1.57-1.24 3.63-1.86 6.18-1.86a17 17 0 0 1 5.93 1.07c.37.12.64.28.8.48.15.2.23.5.23.9v1.26c0 .56-.2.84-.6.84a4.2 4.2 0 0 1-1.08-.23c-1.65-.5-3.33-.75-5.05-.75-2.98 0-4.48 1.01-4.48 3.02 0 .8.25 1.44.75 1.9.5.47 1.48.98 2.94 1.54l3.64 1.4c1.84.7 3.16 1.55 3.97 2.53.81.97 1.21 2.23 1.21 3.78 0 2.2-.82 3.95-2.47 5.25-1.65 1.3-3.84 1.95-6.58 1.95zm14.94-.7c-.62 0-.94-.3-.94-.93V56.68c0-.62.32-.93.94-.93h2.75c.62 0 .94.31.94.93v21.7c0 .61-.32.92-.94.92h-2.75zm1.4-27.73c-.9 0-1.61-.25-2.13-.76a2.72 2.72 0 0 1-.77-2.02c0-.84.26-1.51.77-2.02a2.88 2.88 0 0 1 2.13-.77c.9 0 1.6.26 2.12.77.52.5.77 1.18.77 2.02 0 .83-.25 1.5-.77 2.02-.51.5-1.22.76-2.12.76zm19.51 28.24c-3.67 0-6.48-1.04-8.42-3.13-1.95-2.1-2.92-5.12-2.92-9.08 0-3.93 1-6.98 3.01-9.13 2-2.15 4.85-3.23 8.52-3.23 1.68 0 3.33.3 4.95.89.34.12.58.27.72.46s.21.5.21.93v1.25c0 .62-.2.93-.6.93-.16 0-.4-.04-.75-.14a13.8 13.8 0 0 0-3.88-.55c-2.61 0-4.5.65-5.65 1.97-1.15 1.32-1.72 3.41-1.72 6.3v.6c0 2.81.58 4.88 1.75 6.2 1.17 1.31 3.01 1.97 5.53 1.97 1.3 0 2.7-.21 4.2-.65.35-.1.58-.14.7-.14.4 0 .61.31.61.93v1.26c0 .4-.06.7-.19.88-.12.18-.37.35-.74.5-1.53.66-3.3.98-5.33.98z"/></g></svg>